<?xml version="1.0" encoding="UTF-8" standalone="no"?>
<!-- Created with Inkscape (http://www.inkscape.org/) -->

<svg
   width="8in"
   height="8in"
   viewBox="0 0 203.2 203.2"
   version="1.1"
   id="svg1"
   xml:space="preserve"
   xmlns="http://www.w3.org/2000/svg"
   xmlns:svg="http://www.w3.org/2000/svg"><defs
     id="defs1" /><g
     id="layer1"><path
       style="fill:#000000;stroke-width:1.11897"
       d="M 94.9378,195.11707 C 91.27406,192.82646 83.347059,187.91921 77.322244,184.2121 36.774597,159.2628 27.376302,153.46708 25.289744,152.12482 l -1.702339,-1.09508 V 101.62536 52.220995 l 2.294462,-1.469188 c 1.261959,-0.808055 7.157242,-4.465801 13.10064,-8.128327 5.943399,-3.662528 13.337492,-8.229073 16.431321,-10.14788 3.093818,-1.918806 8.156445,-5.047453 11.250266,-6.952549 13.194443,-8.124792 27.513637,-16.9573109 31.12905,-19.20136 2.140358,-1.3284956 3.962806,-2.4154457 4.049886,-2.4154457 0.0871,0 0.93379,0.514778 1.8816,1.1439524 0.9478,0.6291744 4.65427,2.9426784 8.2366,5.1411213 3.58232,2.198443 9.04463,5.566198 12.13845,7.483902 3.09383,1.917704 6.22466,3.847631 6.9574,4.288728 0.73275,0.441096 3.86358,2.372641 6.95741,4.292322 3.09382,1.91968 7.29046,4.512609 9.32587,5.762065 2.03541,1.249455 7.8974,4.870991 13.02664,8.047859 5.12922,3.176866 11.55782,7.152173 14.28573,8.834014 l 4.95986,3.057893 -0.0748,49.748088 -0.0749,49.74808 -6.66134,4.03037 c -3.66374,2.21671 -7.99361,4.84919 -9.62195,5.84994 -1.62833,1.00076 -4.35948,2.67269 -6.06922,3.7154 -5.77625,3.52271 -16.11281,9.87707 -19.836,12.19412 -2.03541,1.26669 -4.63334,2.86042 -5.77317,3.54162 -2.4059,1.43786 -23.73803,14.75103 -27.23748,16.99865 -1.30267,0.83666 -2.4351,1.51587 -2.51652,1.50934 -0.0815,-0.007 -3.145637,-1.88602 -6.809366,-4.17664 z m 1.360137,-92.50591 C 96.229567,102.43127 94.13031,101.01563 91.632923,99.465288 89.135537,97.914948 83.464036,94.370893 79.029607,91.589616 74.595168,88.808339 68.266889,84.882797 64.966768,82.86619 61.666643,80.849583 57.90073,78.52395 56.598063,77.698115 55.295397,76.872281 49.200266,73.06784 43.053328,69.243802 L 31.877074,62.291004 v 42.171686 42.17169 l 2.590529,1.64284 c 2.896857,1.83712 21.540967,13.37704 30.864228,19.10365 9.647433,5.92574 26.909496,16.59857 29.013846,17.93877 l 1.924386,1.22558 0.07609,-41.8035 c 0.04185,-22.99192 0.02014,-41.95068 -0.04823,-42.13056 z m -41.994336,42.46994 -1.406282,-0.89261 v -11.5213 c 0,-6.33671 0.05561,-11.5213 0.123567,-11.5213 0.19009,0 4.491775,2.56741 7.055874,4.21121 l 2.294462,1.47095 v 1.7475 1.7475 l -3.108621,-1.90323 -3.108633,-1.90324 v 2.91009 2.91008 l 2.590529,1.60799 2.590518,1.608 0.08885,1.67837 c 0.04879,0.9231 -0.01779,1.67828 -0.148028,1.67815 -0.130247,-1.2e-4 -1.335944,-0.65408 -2.679308,-1.45325 l -2.442501,-1.45305 v 5.00598 c 0,2.75328 -0.09992,4.99671 -0.222036,4.98537 -0.122124,-0.0113 -0.854879,-0.42227 -1.628331,-0.91321 z m -12.563917,-7.49036 -1.535691,-0.90171 -0.02171,-11.78772 c -0.01186,-6.48324 0.07967,-11.73081 0.203428,-11.66126 7.104482,3.99151 8.607791,5.32592 9.570426,8.4952 0.52804,1.73847 0.618419,2.65154 0.526955,5.32386 -0.100931,2.94808 -0.17372,3.29329 -0.846521,4.01335 -0.618653,0.66213 -0.925093,0.76658 -1.920358,0.6546 -0.651338,-0.0733 -1.850378,-0.55716 -2.664537,-1.07526 l -1.480303,-0.942 -0.148028,4.39132 -0.148028,4.39133 z m 5.36768,-10.58952 c 0.524694,-0.74912 0.611459,-3.11373 0.170653,-4.65076 -0.326156,-1.13722 -1.529738,-2.5285 -2.729684,-3.15538 -0.439709,-0.22972 -0.872692,-0.41767 -0.962198,-0.41767 -0.08952,0 -0.162732,1.65779 -0.162732,3.68397 v 3.68397 l 1.258255,0.75413 c 1.543479,0.92508 1.840296,0.93753 2.425706,0.10172 z m 14.333147,-6.16943 c -1.160569,-0.75912 -1.426748,-1.11613 -1.708123,-2.29097 -0.183332,-0.76545 -0.891581,-3.47981 -1.573882,-6.0319 -1.175686,-4.39756 -1.264387,-4.60653 -1.696554,-3.9968 -0.345134,0.48692 -0.480607,1.6621 -0.557166,4.8331 l -0.101155,4.18976 -1.453156,-0.90333 -1.453156,-0.90334 v -12.11167 c 0,-9.608585 0.07654,-12.066472 0.370075,-11.892989 0.20354,0.120271 0.866371,0.527401 1.472962,0.904734 l 1.102886,0.686057 0.08135,4.784846 0.08135,4.784842 1.850367,-3.146202 c 1.017711,-1.7304 1.850378,-3.28365 1.850378,-3.451653 0,-0.457401 0.211954,-0.391779 2.116602,0.655313 0.961192,0.52842 1.710496,1.09463 1.665122,1.25825 -0.04543,0.16362 -1.111379,1.851532 -2.368884,3.750932 l -2.286372,3.45344 0.858706,3.05987 c 1.781349,6.34755 3.515914,13.2738 3.323351,13.27045 -0.109995,-0.002 -0.818557,-0.40815 -1.574699,-0.90274 z m -15.820589,-9.72153 c -2.369097,-1.07598 -4.385126,-3.83028 -5.134968,-7.01539 -0.21379,-0.9081 -0.377114,-4.323282 -0.410616,-8.585738 -0.04901,-6.2409 0.0056,-7.18949 0.460791,-8.02206 1.029381,-1.882139 2.381562,-2.291979 4.306351,-1.305236 2.625754,1.346094 4.576873,4.397167 5.092727,7.963782 0.386715,2.67375 0.374037,13.838012 -0.01734,15.247302 -0.210041,0.75637 -0.622268,1.31445 -1.256598,1.70124 -1.161297,0.70809 -1.512663,0.70995 -3.040376,0.0161 z m 0.980483,-4.69334 c 0.125223,-0.44779 0.227687,-3.81177 0.227687,-7.475502 0,-7.280375 -0.144391,-8.008395 -1.759842,-8.872954 -0.684103,-0.366124 -0.833384,-0.355146 -1.28351,0.0944 -0.442372,0.441793 -0.521729,1.315431 -0.603403,6.642024 -0.0517,3.373332 -0.01007,6.698912 0.09198,7.390182 0.366999,2.48016 2.800436,4.10521 3.327123,2.22185 z M 106.43093,93.215898 c 4.24041,-2.697712 5.72104,-3.617162 17.96481,-11.15598 3.25665,-2.005211 7.51991,-4.648104 9.47391,-5.873094 5.0752,-3.181725 25.28104,-15.64167 30.26028,-18.660029 2.31387,-1.402636 4.21235,-2.619281 4.21885,-2.703654 0.0101,-0.136717 -3.36642,-2.283226 -11.67428,-7.420565 -6.18852,-3.826803 -17.29805,-10.766889 -18.78696,-11.736153 -1.42511,-0.92774 -1.67671,-1.00195 -2.22044,-0.65492 -1.32523,0.845816 -10.90975,6.709631 -14.97211,9.159938 -6.93142,4.180849 -16.33098,9.896212 -17.68369,10.752492 -0.6888,0.436019 -1.32338,0.792763 -1.41018,0.792763 -0.0868,0 -0.12276,-9.459125 -0.0799,-21.020279 0.0429,-11.561151 0.0518,-21.020259 0.0199,-21.020239 -0.0319,2e-5 -1.69726,1.018761 -3.700746,2.263867 -2.003531,1.245107 -4.508728,2.800782 -5.567135,3.457054 -1.058419,0.656274 -2.990202,1.880553 -4.292868,2.72062 -1.302667,0.840065 -2.701542,1.701627 -3.108622,1.914577 -0.881163,0.460947 -9.029719,5.433118 -17.467528,10.658512 -3.33808,2.067213 -9.200063,5.669883 -13.026635,8.005931 -12.963556,7.914005 -19.243875,11.868396 -19.243875,12.116874 0,0.136187 0.182111,0.317499 0.404707,0.402914 0.222585,0.08541 3.386718,2.012516 7.031414,4.282446 18.50679,11.526108 33.007551,20.483406 42.85613,26.472759 1.6889,1.027094 6.018772,3.698452 9.621943,5.936354 3.60316,2.237902 6.660495,4.069771 6.794085,4.070822 0.13358,10e-4 2.19859,-1.242304 4.58892,-2.76301 z"
       id="path1" /></g></svg>
